<mxfile host="app.diagrams.net" agent="Mozilla/5.0 (Windows NT 10.0; Win64; x64) AppleWebKit/537.36 (KHTML, like Gecko) Chrome/134.0.0.0 Safari/537.36 OPR/119.0.0.0" version="27.1.4">
  <diagram name="PÃ¡gina-1" id="i1niIuNDsbV2-99V7VAN">
    <mxGraphModel dx="1974" dy="2326" grid="1" gridSize="10" guides="1" tooltips="1" connect="1" arrows="1" fold="1" page="1" pageScale="1" pageWidth="827" pageHeight="1169" math="0" shadow="0">
      <root>
        <mxCell id="0" />
        <mxCell id="1" parent="0" />
        <mxCell id="SWBdWs7fgn10MAbYWgev-1" value="Usuario" style="swimlane;fontStyle=1;align=center;verticalAlign=top;childLayout=stackLayout;horizontal=1;startSize=26;horizontalStack=0;resizeParent=1;resizeParentMax=0;resizeLast=0;collapsible=1;marginBottom=0;whiteSpace=wrap;html=1;" parent="1" vertex="1">
          <mxGeometry x="1030" y="-380" width="180" height="400" as="geometry" />
        </mxCell>
        <mxCell id="SWBdWs7fgn10MAbYWgev-2" value="- id: Long&lt;div&gt;- nome: String&lt;/div&gt;&lt;div&gt;- matricula: String&lt;/div&gt;&lt;div&gt;- cpf: String&lt;/div&gt;&lt;div&gt;- ativo: boolean&lt;/div&gt;&lt;div&gt;- email: String&lt;/div&gt;&lt;div&gt;- turno: Turno&lt;/div&gt;&lt;div&gt;- tipoUsuario: TipoUsuario&lt;/div&gt;" style="text;strokeColor=none;fillColor=none;align=left;verticalAlign=top;spacingLeft=4;spacingRight=4;overflow=hidden;rotatable=0;points=[[0,0.5],[1,0.5]];portConstraint=eastwest;whiteSpace=wrap;html=1;" parent="SWBdWs7fgn10MAbYWgev-1" vertex="1">
          <mxGeometry y="26" width="180" height="134" as="geometry" />
        </mxCell>
        <mxCell id="SWBdWs7fgn10MAbYWgev-3" value="" style="line;strokeWidth=1;fillColor=none;align=left;verticalAlign=middle;spacingTop=-1;spacingLeft=3;spacingRight=3;rotatable=0;labelPosition=right;points=[];portConstraint=eastwest;strokeColor=inherit;" parent="SWBdWs7fgn10MAbYWgev-1" vertex="1">
          <mxGeometry y="160" width="180" height="8" as="geometry" />
        </mxCell>
        <mxCell id="SWBdWs7fgn10MAbYWgev-4" value="+ getId(): long&lt;div&gt;+ setId(id): void&lt;/div&gt;&lt;div&gt;+ getNome(): String&lt;div&gt;+ setNome(nome): String&lt;/div&gt;&lt;div&gt;+ getMatricula(): String&lt;div&gt;+ setMatricula(matricula): void&lt;/div&gt;&lt;div&gt;+ getCpf(): String&lt;div&gt;+ setCpf(cpf): void&lt;/div&gt;&lt;div&gt;+ getTurno(): turno&lt;div&gt;+ setTurno(turno): void&lt;/div&gt;&lt;div&gt;&lt;span style=&quot;background-color: transparent;&quot;&gt;+ getEmail(): String&lt;/span&gt;&lt;/div&gt;&lt;div&gt;+ setEmail(email): void&lt;/div&gt;&lt;div&gt;+ isAtivo(): boolean&lt;div&gt;+ setAtivo(ativo): void&lt;/div&gt;&lt;/div&gt;&lt;/div&gt;&lt;/div&gt;&lt;/div&gt;&lt;/div&gt;&lt;div&gt;+ getTipoUsuario(): TipoUsuario&lt;/div&gt;" style="text;strokeColor=none;fillColor=none;align=left;verticalAlign=top;spacingLeft=4;spacingRight=4;overflow=hidden;rotatable=0;points=[[0,0.5],[1,0.5]];portConstraint=eastwest;whiteSpace=wrap;html=1;" parent="SWBdWs7fgn10MAbYWgev-1" vertex="1">
          <mxGeometry y="168" width="180" height="232" as="geometry" />
        </mxCell>
        <mxCell id="SWBdWs7fgn10MAbYWgev-26" style="edgeStyle=orthogonalEdgeStyle;rounded=0;orthogonalLoop=1;jettySize=auto;html=1;endArrow=block;endFill=0;" parent="1" source="SWBdWs7fgn10MAbYWgev-5" target="SWBdWs7fgn10MAbYWgev-1" edge="1">
          <mxGeometry relative="1" as="geometry">
            <mxPoint x="290.99999999999955" y="168.99999999999955" as="sourcePoint" />
            <Array as="points">
              <mxPoint x="1230" y="-133" />
              <mxPoint x="1230" y="-133" />
            </Array>
          </mxGeometry>
        </mxCell>
        <mxCell id="SWBdWs7fgn10MAbYWgev-5" value="Professor" style="swimlane;fontStyle=1;align=center;verticalAlign=top;childLayout=stackLayout;horizontal=1;startSize=26;horizontalStack=0;resizeParent=1;resizeParentMax=0;resizeLast=0;collapsible=1;marginBottom=0;whiteSpace=wrap;html=1;" parent="1" vertex="1">
          <mxGeometry x="1290" y="-150" width="160" height="34" as="geometry" />
        </mxCell>
        <mxCell id="SWBdWs7fgn10MAbYWgev-7" value="" style="line;strokeWidth=1;fillColor=none;align=left;verticalAlign=middle;spacingTop=-1;spacingLeft=3;spacingRight=3;rotatable=0;labelPosition=right;points=[];portConstraint=eastwest;strokeColor=inherit;" parent="SWBdWs7fgn10MAbYWgev-5" vertex="1">
          <mxGeometry y="26" width="160" height="8" as="geometry" />
        </mxCell>
        <mxCell id="SWBdWs7fgn10MAbYWgev-25" style="edgeStyle=orthogonalEdgeStyle;rounded=0;orthogonalLoop=1;jettySize=auto;html=1;endArrow=block;endFill=0;" parent="1" source="SWBdWs7fgn10MAbYWgev-9" edge="1" target="SWBdWs7fgn10MAbYWgev-1">
          <mxGeometry relative="1" as="geometry">
            <mxPoint x="161" y="25" as="targetPoint" />
            <Array as="points">
              <mxPoint x="1260" y="-70" />
              <mxPoint x="1260" y="-70" />
            </Array>
          </mxGeometry>
        </mxCell>
        <mxCell id="SWBdWs7fgn10MAbYWgev-9" value="Aluno" style="swimlane;fontStyle=1;align=center;verticalAlign=top;childLayout=stackLayout;horizontal=1;startSize=29;horizontalStack=0;resizeParent=1;resizeParentMax=0;resizeLast=0;collapsible=1;marginBottom=0;whiteSpace=wrap;html=1;" parent="1" vertex="1">
          <mxGeometry x="1290" y="-90" width="160" height="36" as="geometry" />
        </mxCell>
        <mxCell id="SWBdWs7fgn10MAbYWgev-11" value="" style="line;strokeWidth=1;fillColor=none;align=left;verticalAlign=middle;spacingTop=-1;spacingLeft=3;spacingRight=3;rotatable=0;labelPosition=right;points=[];portConstraint=eastwest;strokeColor=inherit;" parent="SWBdWs7fgn10MAbYWgev-9" vertex="1">
          <mxGeometry y="29" width="160" height="7" as="geometry" />
        </mxCell>
        <mxCell id="SWBdWs7fgn10MAbYWgev-78" style="edgeStyle=orthogonalEdgeStyle;rounded=0;orthogonalLoop=1;jettySize=auto;html=1;endArrow=none;startFill=0;" parent="1" source="SWBdWs7fgn10MAbYWgev-13" target="SWBdWs7fgn10MAbYWgev-17" edge="1">
          <mxGeometry relative="1" as="geometry">
            <Array as="points">
              <mxPoint x="550" y="40" />
              <mxPoint x="550" y="40" />
            </Array>
          </mxGeometry>
        </mxCell>
        <mxCell id="SWBdWs7fgn10MAbYWgev-13" value="Emprestimo" style="swimlane;fontStyle=1;align=center;verticalAlign=top;childLayout=stackLayout;horizontal=1;startSize=26;horizontalStack=0;resizeParent=1;resizeParentMax=0;resizeLast=0;collapsible=1;marginBottom=0;whiteSpace=wrap;html=1;" parent="1" vertex="1">
          <mxGeometry x="320" y="60" width="290" height="350" as="geometry" />
        </mxCell>
        <mxCell id="SWBdWs7fgn10MAbYWgev-14" value="- id: long&lt;div&gt;- usuario: Usuario&lt;/div&gt;&lt;div&gt;- livro: Livro&lt;/div&gt;&lt;div&gt;- dataEmprestimo: LocalDate&lt;/div&gt;&lt;div&gt;- dataDevolucao: LocalDate&lt;/div&gt;&lt;div&gt;- dataDevolucaoPrevista: LocalDate&lt;/div&gt;&lt;div&gt;- devolvido: boolean&lt;/div&gt;" style="text;strokeColor=none;fillColor=none;align=left;verticalAlign=top;spacingLeft=4;spacingRight=4;overflow=hidden;rotatable=0;points=[[0,0.5],[1,0.5]];portConstraint=eastwest;whiteSpace=wrap;html=1;" parent="SWBdWs7fgn10MAbYWgev-13" vertex="1">
          <mxGeometry y="26" width="290" height="124" as="geometry" />
        </mxCell>
        <mxCell id="SWBdWs7fgn10MAbYWgev-15" value="" style="line;strokeWidth=1;fillColor=none;align=left;verticalAlign=middle;spacingTop=-1;spacingLeft=3;spacingRight=3;rotatable=0;labelPosition=right;points=[];portConstraint=eastwest;strokeColor=inherit;" parent="SWBdWs7fgn10MAbYWgev-13" vertex="1">
          <mxGeometry y="150" width="290" height="8" as="geometry" />
        </mxCell>
        <mxCell id="SWBdWs7fgn10MAbYWgev-16" value="+ getId(): long&lt;div&gt;+ setId(id): void&lt;/div&gt;&lt;div&gt;+ getUsuario: usuario&lt;/div&gt;&lt;div&gt;+ setUsuario(usuario): void&lt;/div&gt;&lt;div&gt;+ getLivro(): livro&lt;/div&gt;&lt;div&gt;+ setLivro(livro): void&lt;/div&gt;&lt;div&gt;+ getDataEmprestimo() LocalDate&lt;/div&gt;&lt;div&gt;+ setDataEmprestimo(dataEmprestimo): void&lt;/div&gt;&lt;div&gt;+ getDataDevolucaoPrevista(): LocalDate&lt;/div&gt;&lt;div&gt;+ setDataDevolucaoPrevista(dataDevolucao): void&amp;nbsp;&lt;/div&gt;&lt;div&gt;+ isDevolvido(): boolean&lt;/div&gt;&lt;div&gt;+ setDevolvido(devolvido): void&lt;/div&gt;&lt;div&gt;&lt;br&gt;&lt;/div&gt;" style="text;strokeColor=none;fillColor=none;align=left;verticalAlign=top;spacingLeft=4;spacingRight=4;overflow=hidden;rotatable=0;points=[[0,0.5],[1,0.5]];portConstraint=eastwest;whiteSpace=wrap;html=1;" parent="SWBdWs7fgn10MAbYWgev-13" vertex="1">
          <mxGeometry y="158" width="290" height="192" as="geometry" />
        </mxCell>
        <mxCell id="SWBdWs7fgn10MAbYWgev-17" value="Livro" style="swimlane;fontStyle=1;align=center;verticalAlign=top;childLayout=stackLayout;horizontal=1;startSize=26;horizontalStack=0;resizeParent=1;resizeParentMax=0;resizeLast=0;collapsible=1;marginBottom=0;whiteSpace=wrap;html=1;" parent="1" vertex="1">
          <mxGeometry x="500" y="-350" width="180" height="370" as="geometry" />
        </mxCell>
        <mxCell id="SWBdWs7fgn10MAbYWgev-18" value="- id: long&lt;div&gt;- titulo: String&lt;/div&gt;&lt;div&gt;- autor: String&lt;/div&gt;&lt;div&gt;- anoPublicacao: int&lt;/div&gt;&lt;div&gt;- editora: String&lt;/div&gt;&lt;div&gt;- isbn: String&lt;/div&gt;&lt;div&gt;- status: Status&lt;/div&gt;" style="text;strokeColor=none;fillColor=none;align=left;verticalAlign=top;spacingLeft=4;spacingRight=4;overflow=hidden;rotatable=0;points=[[0,0.5],[1,0.5]];portConstraint=eastwest;whiteSpace=wrap;html=1;" parent="SWBdWs7fgn10MAbYWgev-17" vertex="1">
          <mxGeometry y="26" width="180" height="114" as="geometry" />
        </mxCell>
        <mxCell id="SWBdWs7fgn10MAbYWgev-19" value="" style="line;strokeWidth=1;fillColor=none;align=left;verticalAlign=middle;spacingTop=-1;spacingLeft=3;spacingRight=3;rotatable=0;labelPosition=right;points=[];portConstraint=eastwest;strokeColor=inherit;" parent="SWBdWs7fgn10MAbYWgev-17" vertex="1">
          <mxGeometry y="140" width="180" height="8" as="geometry" />
        </mxCell>
        <mxCell id="SWBdWs7fgn10MAbYWgev-20" value="+ getId(): long&lt;div&gt;+ setId(id): void&lt;/div&gt;&lt;div&gt;+ getTitulo(): String&lt;/div&gt;&lt;div&gt;+ setTitulo(titulo): void&lt;/div&gt;&lt;div&gt;+ getAutor(): String&lt;/div&gt;&lt;div&gt;+ setAutor(autor): void&lt;/div&gt;&lt;div&gt;+ getAnoPublicacao(): int&lt;/div&gt;&lt;div&gt;+ setAnoPublicacao(ano): void&lt;/div&gt;&lt;div&gt;+&amp;nbsp;getEditora(): String&lt;/div&gt;&lt;div&gt;+ setEditora(editora): void&lt;/div&gt;&lt;div&gt;+ getIsbn(): String&lt;/div&gt;&lt;div&gt;+ setIsbn(isbn): void&lt;/div&gt;&lt;div&gt;+ getStatus(): Status&lt;/div&gt;&lt;div&gt;+ setStatus(status): void&lt;/div&gt;" style="text;strokeColor=none;fillColor=none;align=left;verticalAlign=top;spacingLeft=4;spacingRight=4;overflow=hidden;rotatable=0;points=[[0,0.5],[1,0.5]];portConstraint=eastwest;whiteSpace=wrap;html=1;" parent="SWBdWs7fgn10MAbYWgev-17" vertex="1">
          <mxGeometry y="148" width="180" height="222" as="geometry" />
        </mxCell>
        <mxCell id="IxCLyu_dnbTeBCR__Btl-17" style="edgeStyle=orthogonalEdgeStyle;rounded=0;orthogonalLoop=1;jettySize=auto;html=1;endArrow=none;startFill=0;" edge="1" parent="1" source="SWBdWs7fgn10MAbYWgev-21" target="IxCLyu_dnbTeBCR__Btl-1">
          <mxGeometry relative="1" as="geometry">
            <Array as="points">
              <mxPoint x="520" y="-710" />
              <mxPoint x="520" y="-710" />
            </Array>
          </mxGeometry>
        </mxCell>
        <mxCell id="IxCLyu_dnbTeBCR__Btl-34" style="edgeStyle=orthogonalEdgeStyle;rounded=0;orthogonalLoop=1;jettySize=auto;html=1;endArrow=none;startFill=0;" edge="1" parent="1" source="SWBdWs7fgn10MAbYWgev-21" target="SWBdWs7fgn10MAbYWgev-13">
          <mxGeometry relative="1" as="geometry">
            <Array as="points">
              <mxPoint x="290" y="-620" />
              <mxPoint x="290" y="235" />
            </Array>
          </mxGeometry>
        </mxCell>
        <mxCell id="SWBdWs7fgn10MAbYWgev-21" value="Bibliotecario" style="swimlane;fontStyle=1;align=center;verticalAlign=top;childLayout=stackLayout;horizontal=1;startSize=26;horizontalStack=0;resizeParent=1;resizeParentMax=0;resizeLast=0;collapsible=1;marginBottom=0;whiteSpace=wrap;html=1;" parent="1" vertex="1">
          <mxGeometry x="328" y="-760" width="160" height="280" as="geometry" />
        </mxCell>
        <mxCell id="SWBdWs7fgn10MAbYWgev-22" value="- id: long&lt;div&gt;- nome: String&lt;/div&gt;&lt;div&gt;- cpf: String&lt;/div&gt;&lt;div&gt;- email: String&lt;/div&gt;&lt;div&gt;- senha: String&lt;/div&gt;&lt;div&gt;&lt;br&gt;&lt;/div&gt;" style="text;strokeColor=none;fillColor=none;align=left;verticalAlign=top;spacingLeft=4;spacingRight=4;overflow=hidden;rotatable=0;points=[[0,0.5],[1,0.5]];portConstraint=eastwest;whiteSpace=wrap;html=1;" parent="SWBdWs7fgn10MAbYWgev-21" vertex="1">
          <mxGeometry y="26" width="160" height="84" as="geometry" />
        </mxCell>
        <mxCell id="SWBdWs7fgn10MAbYWgev-23" value="" style="line;strokeWidth=1;fillColor=none;align=left;verticalAlign=middle;spacingTop=-1;spacingLeft=3;spacingRight=3;rotatable=0;labelPosition=right;points=[];portConstraint=eastwest;strokeColor=inherit;" parent="SWBdWs7fgn10MAbYWgev-21" vertex="1">
          <mxGeometry y="110" width="160" height="8" as="geometry" />
        </mxCell>
        <mxCell id="SWBdWs7fgn10MAbYWgev-24" value="+ getId(): long&lt;div&gt;+ setId(id): void&lt;/div&gt;&lt;div&gt;+ getNome(): String&lt;/div&gt;&lt;div&gt;+ setNome(nome): void&lt;/div&gt;&lt;div&gt;+ getCpf(): String&lt;/div&gt;&lt;div&gt;+ setCpf(cpf): void&lt;/div&gt;&lt;div&gt;+ getEmail(): String&lt;/div&gt;&lt;div&gt;+ setEmail(email): void&lt;/div&gt;&lt;div&gt;+ getSenha(): String&lt;/div&gt;&lt;div&gt;+ setSenha(senha): void&lt;/div&gt;&lt;div&gt;&lt;br&gt;&lt;/div&gt;" style="text;strokeColor=none;fillColor=none;align=left;verticalAlign=top;spacingLeft=4;spacingRight=4;overflow=hidden;rotatable=0;points=[[0,0.5],[1,0.5]];portConstraint=eastwest;whiteSpace=wrap;html=1;" parent="SWBdWs7fgn10MAbYWgev-21" vertex="1">
          <mxGeometry y="118" width="160" height="162" as="geometry" />
        </mxCell>
        <mxCell id="SWBdWs7fgn10MAbYWgev-55" style="edgeStyle=orthogonalEdgeStyle;rounded=0;orthogonalLoop=1;jettySize=auto;html=1;dashed=1;endArrow=open;endFill=0;" parent="1" source="SWBdWs7fgn10MAbYWgev-28" target="SWBdWs7fgn10MAbYWgev-21" edge="1">
          <mxGeometry relative="1" as="geometry">
            <Array as="points">
              <mxPoint x="470" y="-810" />
            </Array>
          </mxGeometry>
        </mxCell>
        <mxCell id="SWBdWs7fgn10MAbYWgev-28" value="BibliotecarioDAO" style="swimlane;fontStyle=1;align=center;verticalAlign=top;childLayout=stackLayout;horizontal=1;startSize=26;horizontalStack=0;resizeParent=1;resizeParentMax=0;resizeLast=0;collapsible=1;marginBottom=0;whiteSpace=wrap;html=1;" parent="1" vertex="1">
          <mxGeometry x="720" y="-840" width="210" height="80" as="geometry" />
        </mxCell>
        <mxCell id="SWBdWs7fgn10MAbYWgev-30" value="" style="line;strokeWidth=1;fillColor=none;align=left;verticalAlign=middle;spacingTop=-1;spacingLeft=3;spacingRight=3;rotatable=0;labelPosition=right;points=[];portConstraint=eastwest;strokeColor=inherit;" parent="SWBdWs7fgn10MAbYWgev-28" vertex="1">
          <mxGeometry y="26" width="210" height="8" as="geometry" />
        </mxCell>
        <mxCell id="SWBdWs7fgn10MAbYWgev-31" value="+ cadastrar(bibliotecario): String&lt;div&gt;+ login(email, senha): Bibliotecario&lt;/div&gt;" style="text;strokeColor=none;fillColor=none;align=left;verticalAlign=top;spacingLeft=4;spacingRight=4;overflow=hidden;rotatable=0;points=[[0,0.5],[1,0.5]];portConstraint=eastwest;whiteSpace=wrap;html=1;" parent="SWBdWs7fgn10MAbYWgev-28" vertex="1">
          <mxGeometry y="34" width="210" height="46" as="geometry" />
        </mxCell>
        <mxCell id="SWBdWs7fgn10MAbYWgev-66" style="edgeStyle=orthogonalEdgeStyle;rounded=0;orthogonalLoop=1;jettySize=auto;html=1;dashed=1;endArrow=open;endFill=0;" parent="1" source="SWBdWs7fgn10MAbYWgev-34" target="SWBdWs7fgn10MAbYWgev-13" edge="1">
          <mxGeometry relative="1" as="geometry">
            <Array as="points">
              <mxPoint x="855" y="160" />
            </Array>
          </mxGeometry>
        </mxCell>
        <mxCell id="SWBdWs7fgn10MAbYWgev-34" value="EmprestimoDAO" style="swimlane;fontStyle=1;align=center;verticalAlign=top;childLayout=stackLayout;horizontal=1;startSize=26;horizontalStack=0;resizeParent=1;resizeParentMax=0;resizeLast=0;collapsible=1;marginBottom=0;whiteSpace=wrap;html=1;" parent="1" vertex="1">
          <mxGeometry x="750" y="-20" width="210" height="130" as="geometry" />
        </mxCell>
        <mxCell id="SWBdWs7fgn10MAbYWgev-35" value="" style="line;strokeWidth=1;fillColor=none;align=left;verticalAlign=middle;spacingTop=-1;spacingLeft=3;spacingRight=3;rotatable=0;labelPosition=right;points=[];portConstraint=eastwest;strokeColor=inherit;" parent="SWBdWs7fgn10MAbYWgev-34" vertex="1">
          <mxGeometry y="26" width="210" height="8" as="geometry" />
        </mxCell>
        <mxCell id="SWBdWs7fgn10MAbYWgev-36" value="+ salvar(emprestimo): void&lt;div&gt;+ listarTodos(): List&amp;lt;Emprestimo&amp;gt;&lt;/div&gt;&lt;div&gt;+ buscarUsuarioPorId(id): Usuario&lt;/div&gt;&lt;div&gt;+ buscarLivroPorId(id): Livro&lt;/div&gt;&lt;div&gt;+ atualizar(emprestimo): void&lt;/div&gt;&lt;div&gt;+ deletar(id): void&lt;/div&gt;" style="text;strokeColor=none;fillColor=none;align=left;verticalAlign=top;spacingLeft=4;spacingRight=4;overflow=hidden;rotatable=0;points=[[0,0.5],[1,0.5]];portConstraint=eastwest;whiteSpace=wrap;html=1;" parent="SWBdWs7fgn10MAbYWgev-34" vertex="1">
          <mxGeometry y="34" width="210" height="96" as="geometry" />
        </mxCell>
        <mxCell id="SWBdWs7fgn10MAbYWgev-69" style="edgeStyle=orthogonalEdgeStyle;rounded=0;orthogonalLoop=1;jettySize=auto;html=1;dashed=1;endArrow=open;endFill=0;strokeWidth=1;" parent="1" source="SWBdWs7fgn10MAbYWgev-37" target="SWBdWs7fgn10MAbYWgev-17" edge="1">
          <mxGeometry relative="1" as="geometry">
            <Array as="points">
              <mxPoint x="825" y="-140" />
            </Array>
          </mxGeometry>
        </mxCell>
        <mxCell id="IxCLyu_dnbTeBCR__Btl-24" style="edgeStyle=orthogonalEdgeStyle;rounded=0;orthogonalLoop=1;jettySize=auto;html=1;endArrow=none;startFill=0;" edge="1" parent="1" source="SWBdWs7fgn10MAbYWgev-37" target="IxCLyu_dnbTeBCR__Btl-9">
          <mxGeometry relative="1" as="geometry">
            <Array as="points">
              <mxPoint x="740" y="-390" />
              <mxPoint x="740" y="-390" />
            </Array>
          </mxGeometry>
        </mxCell>
        <mxCell id="SWBdWs7fgn10MAbYWgev-37" value="LivroDAO" style="swimlane;fontStyle=1;align=center;verticalAlign=top;childLayout=stackLayout;horizontal=1;startSize=26;horizontalStack=0;resizeParent=1;resizeParentMax=0;resizeLast=0;collapsible=1;marginBottom=0;whiteSpace=wrap;html=1;" parent="1" vertex="1">
          <mxGeometry x="720" y="-360" width="210" height="170" as="geometry" />
        </mxCell>
        <mxCell id="SWBdWs7fgn10MAbYWgev-38" value="" style="line;strokeWidth=1;fillColor=none;align=left;verticalAlign=middle;spacingTop=-1;spacingLeft=3;spacingRight=3;rotatable=0;labelPosition=right;points=[];portConstraint=eastwest;strokeColor=inherit;" parent="SWBdWs7fgn10MAbYWgev-37" vertex="1">
          <mxGeometry y="26" width="210" height="8" as="geometry" />
        </mxCell>
        <mxCell id="SWBdWs7fgn10MAbYWgev-39" value="+ cadastrarLivro(livro): String&lt;div&gt;+ listarTodos(): List&amp;lt;Livro&amp;gt;&lt;/div&gt;&lt;div&gt;+ buscarPorId(id): Livro&lt;/div&gt;&lt;div&gt;+ buscarPorNome(nome): String&lt;/div&gt;&lt;div&gt;+ atualizarLivro(livro): boolean&lt;/div&gt;&lt;div&gt;+ alterarStatus(id, status): boolean&lt;/div&gt;&lt;div&gt;+ deletarLivro(id): boolean&lt;/div&gt;&lt;div&gt;+ mapearLivro(resultset): Livro&lt;/div&gt;" style="text;strokeColor=none;fillColor=none;align=left;verticalAlign=top;spacingLeft=4;spacingRight=4;overflow=hidden;rotatable=0;points=[[0,0.5],[1,0.5]];portConstraint=eastwest;whiteSpace=wrap;html=1;" parent="SWBdWs7fgn10MAbYWgev-37" vertex="1">
          <mxGeometry y="34" width="210" height="136" as="geometry" />
        </mxCell>
        <mxCell id="SWBdWs7fgn10MAbYWgev-71" style="edgeStyle=orthogonalEdgeStyle;rounded=0;orthogonalLoop=1;jettySize=auto;html=1;endArrow=open;endFill=0;dashed=1;" parent="1" source="SWBdWs7fgn10MAbYWgev-40" target="SWBdWs7fgn10MAbYWgev-1" edge="1">
          <mxGeometry relative="1" as="geometry">
            <mxPoint x="1239.9999999999995" y="190" as="sourcePoint" />
            <Array as="points">
              <mxPoint x="1120" y="60" />
              <mxPoint x="1120" y="60" />
            </Array>
            <mxPoint x="1220.2600000000002" y="-157.35199999999986" as="targetPoint" />
          </mxGeometry>
        </mxCell>
        <mxCell id="SWBdWs7fgn10MAbYWgev-40" value="UsuarioDAO" style="swimlane;fontStyle=1;align=center;verticalAlign=top;childLayout=stackLayout;horizontal=1;startSize=26;horizontalStack=0;resizeParent=1;resizeParentMax=0;resizeLast=0;collapsible=1;marginBottom=0;whiteSpace=wrap;html=1;" parent="1" vertex="1">
          <mxGeometry x="1040" y="92" width="230" height="180" as="geometry" />
        </mxCell>
        <mxCell id="SWBdWs7fgn10MAbYWgev-42" value="" style="line;strokeWidth=1;fillColor=none;align=left;verticalAlign=middle;spacingTop=-1;spacingLeft=3;spacingRight=3;rotatable=0;labelPosition=right;points=[];portConstraint=eastwest;strokeColor=inherit;" parent="SWBdWs7fgn10MAbYWgev-40" vertex="1">
          <mxGeometry y="26" width="230" height="8" as="geometry" />
        </mxCell>
        <mxCell id="SWBdWs7fgn10MAbYWgev-43" value="+ cadastrarUsuario(usuario): String&lt;div&gt;+ buscarPorMatricula(matricula): Usuario&lt;/div&gt;&lt;div&gt;+ buscarPorNome(nome): List&amp;lt;Usuario&amp;gt;&lt;/div&gt;&lt;div&gt;+ listarTodos(): List&amp;lt;Usuario&amp;gt;&lt;/div&gt;&lt;div&gt;+ listarAlunos(): List&amp;lt;Usuario&amp;gt;&lt;/div&gt;&lt;div&gt;+ listarProfessores(): List&amp;lt;Usuario&amp;gt;&lt;/div&gt;&lt;div&gt;+ listarPorTipo(tipo): List&amp;lt;Usuario&amp;gt;&lt;/div&gt;&lt;div&gt;+ deletar(id): void&lt;/div&gt;&lt;div&gt;+ mapearUsuario(resultset): Usuario&lt;/div&gt;" style="text;strokeColor=none;fillColor=none;align=left;verticalAlign=top;spacingLeft=4;spacingRight=4;overflow=hidden;rotatable=0;points=[[0,0.5],[1,0.5]];portConstraint=eastwest;whiteSpace=wrap;html=1;" parent="SWBdWs7fgn10MAbYWgev-40" vertex="1">
          <mxGeometry y="34" width="230" height="146" as="geometry" />
        </mxCell>
        <mxCell id="SWBdWs7fgn10MAbYWgev-68" style="edgeStyle=orthogonalEdgeStyle;rounded=0;orthogonalLoop=1;jettySize=auto;html=1;endArrow=none;startFill=0;" parent="1" source="SWBdWs7fgn10MAbYWgev-44" target="SWBdWs7fgn10MAbYWgev-17" edge="1">
          <mxGeometry relative="1" as="geometry">
            <Array as="points">
              <mxPoint x="470" y="-280" />
              <mxPoint x="470" y="-280" />
            </Array>
          </mxGeometry>
        </mxCell>
        <mxCell id="SWBdWs7fgn10MAbYWgev-44" value="&amp;lt;&amp;lt;enumeration&amp;gt;&amp;gt;&lt;br&gt;&lt;b&gt;Status&lt;/b&gt;" style="swimlane;fontStyle=0;align=center;verticalAlign=top;childLayout=stackLayout;horizontal=1;startSize=40;horizontalStack=0;resizeParent=1;resizeParentMax=0;resizeLast=0;collapsible=0;marginBottom=0;html=1;whiteSpace=wrap;" parent="1" vertex="1">
          <mxGeometry x="310" y="-350" width="140" height="100" as="geometry" />
        </mxCell>
        <mxCell id="SWBdWs7fgn10MAbYWgev-45" value="DISPONIVEL&lt;div&gt;EMPRESTADO&lt;/div&gt;&lt;div&gt;ATRASADO&lt;/div&gt;" style="text;html=1;strokeColor=none;fillColor=none;align=left;verticalAlign=middle;spacingLeft=4;spacingRight=4;overflow=hidden;rotatable=0;points=[[0,0.5],[1,0.5]];portConstraint=eastwest;whiteSpace=wrap;" parent="SWBdWs7fgn10MAbYWgev-44" vertex="1">
          <mxGeometry y="40" width="140" height="60" as="geometry" />
        </mxCell>
        <mxCell id="IxCLyu_dnbTeBCR__Btl-30" style="edgeStyle=orthogonalEdgeStyle;rounded=0;orthogonalLoop=1;jettySize=auto;html=1;endArrow=none;startFill=0;" edge="1" parent="1" source="SWBdWs7fgn10MAbYWgev-46" target="SWBdWs7fgn10MAbYWgev-2">
          <mxGeometry relative="1" as="geometry">
            <Array as="points">
              <mxPoint x="1270" y="-270" />
              <mxPoint x="1270" y="-270" />
            </Array>
          </mxGeometry>
        </mxCell>
        <mxCell id="SWBdWs7fgn10MAbYWgev-46" value="&amp;lt;&amp;lt;enumeration&amp;gt;&amp;gt;&lt;br&gt;&lt;b&gt;TipoUsuario&lt;/b&gt;" style="swimlane;fontStyle=0;align=center;verticalAlign=top;childLayout=stackLayout;horizontal=1;startSize=40;horizontalStack=0;resizeParent=1;resizeParentMax=0;resizeLast=0;collapsible=0;marginBottom=0;html=1;whiteSpace=wrap;" parent="1" vertex="1">
          <mxGeometry x="1330" y="-290" width="140" height="80" as="geometry" />
        </mxCell>
        <mxCell id="SWBdWs7fgn10MAbYWgev-47" value="ALUNO&lt;div&gt;PROFESSOR&lt;/div&gt;" style="text;html=1;strokeColor=none;fillColor=none;align=left;verticalAlign=middle;spacingLeft=4;spacingRight=4;overflow=hidden;rotatable=0;points=[[0,0.5],[1,0.5]];portConstraint=eastwest;whiteSpace=wrap;" parent="SWBdWs7fgn10MAbYWgev-46" vertex="1">
          <mxGeometry y="40" width="140" height="40" as="geometry" />
        </mxCell>
        <mxCell id="SWBdWs7fgn10MAbYWgev-60" style="edgeStyle=orthogonalEdgeStyle;rounded=0;orthogonalLoop=1;jettySize=auto;html=1;endArrow=none;startFill=0;" parent="1" source="SWBdWs7fgn10MAbYWgev-48" target="SWBdWs7fgn10MAbYWgev-2" edge="1">
          <mxGeometry relative="1" as="geometry">
            <Array as="points">
              <mxPoint x="1270" y="-320" />
              <mxPoint x="1270" y="-320" />
            </Array>
          </mxGeometry>
        </mxCell>
        <mxCell id="SWBdWs7fgn10MAbYWgev-48" value="&amp;lt;&amp;lt;enumeration&amp;gt;&amp;gt;&lt;br&gt;&lt;b&gt;Turno&lt;/b&gt;" style="swimlane;fontStyle=0;align=center;verticalAlign=top;childLayout=stackLayout;horizontal=1;startSize=40;horizontalStack=0;resizeParent=1;resizeParentMax=0;resizeLast=0;collapsible=0;marginBottom=0;html=1;whiteSpace=wrap;" parent="1" vertex="1">
          <mxGeometry x="1330" y="-400" width="140" height="100" as="geometry" />
        </mxCell>
        <mxCell id="SWBdWs7fgn10MAbYWgev-49" value="MATUTINO&lt;div&gt;VESPERTINO&lt;/div&gt;&lt;div&gt;NOTURNO&lt;/div&gt;" style="text;html=1;strokeColor=none;fillColor=none;align=left;verticalAlign=middle;spacingLeft=4;spacingRight=4;overflow=hidden;rotatable=0;points=[[0,0.5],[1,0.5]];portConstraint=eastwest;whiteSpace=wrap;" parent="SWBdWs7fgn10MAbYWgev-48" vertex="1">
          <mxGeometry y="40" width="140" height="60" as="geometry" />
        </mxCell>
        <mxCell id="SWBdWs7fgn10MAbYWgev-64" style="edgeStyle=orthogonalEdgeStyle;rounded=0;orthogonalLoop=1;jettySize=auto;html=1;endArrow=none;startFill=0;" parent="1" source="SWBdWs7fgn10MAbYWgev-21" target="SWBdWs7fgn10MAbYWgev-1" edge="1">
          <mxGeometry relative="1" as="geometry">
            <Array as="points">
              <mxPoint x="410" y="-860" />
              <mxPoint x="1480" y="-860" />
              <mxPoint x="1480" />
            </Array>
            <mxPoint x="280" y="-640" as="sourcePoint" />
          </mxGeometry>
        </mxCell>
        <mxCell id="SWBdWs7fgn10MAbYWgev-70" style="edgeStyle=orthogonalEdgeStyle;rounded=0;orthogonalLoop=1;jettySize=auto;html=1;exitX=1;exitY=0.5;exitDx=0;exitDy=0;endArrow=none;startFill=0;" parent="1" source="SWBdWs7fgn10MAbYWgev-24" target="SWBdWs7fgn10MAbYWgev-17" edge="1">
          <mxGeometry relative="1" as="geometry">
            <Array as="points">
              <mxPoint x="520" y="-561" />
            </Array>
          </mxGeometry>
        </mxCell>
        <mxCell id="IxCLyu_dnbTeBCR__Btl-18" style="edgeStyle=orthogonalEdgeStyle;rounded=0;orthogonalLoop=1;jettySize=auto;html=1;endArrow=none;startFill=0;" edge="1" parent="1" source="IxCLyu_dnbTeBCR__Btl-1" target="IxCLyu_dnbTeBCR__Btl-5">
          <mxGeometry relative="1" as="geometry">
            <Array as="points">
              <mxPoint x="865" y="-600" />
              <mxPoint x="865" y="-600" />
            </Array>
          </mxGeometry>
        </mxCell>
        <mxCell id="IxCLyu_dnbTeBCR__Btl-19" style="edgeStyle=orthogonalEdgeStyle;rounded=0;orthogonalLoop=1;jettySize=auto;html=1;entryX=0.5;entryY=0;entryDx=0;entryDy=0;endArrow=none;startFill=0;" edge="1" parent="1" source="IxCLyu_dnbTeBCR__Btl-1" target="IxCLyu_dnbTeBCR__Btl-9">
          <mxGeometry relative="1" as="geometry">
            <mxPoint x="720" y="-680" as="sourcePoint" />
            <Array as="points">
              <mxPoint x="676" y="-690" />
              <mxPoint x="676" y="-560" />
            </Array>
          </mxGeometry>
        </mxCell>
        <mxCell id="IxCLyu_dnbTeBCR__Btl-20" style="edgeStyle=orthogonalEdgeStyle;rounded=0;orthogonalLoop=1;jettySize=auto;html=1;endArrow=none;startFill=0;exitX=1;exitY=0.5;exitDx=0;exitDy=0;" edge="1" parent="1" source="IxCLyu_dnbTeBCR__Btl-4" target="IxCLyu_dnbTeBCR__Btl-13">
          <mxGeometry relative="1" as="geometry">
            <Array as="points">
              <mxPoint x="1190" y="-693" />
            </Array>
          </mxGeometry>
        </mxCell>
        <mxCell id="IxCLyu_dnbTeBCR__Btl-27" style="edgeStyle=orthogonalEdgeStyle;rounded=0;orthogonalLoop=1;jettySize=auto;html=1;endArrow=none;startFill=0;" edge="1" parent="1" source="IxCLyu_dnbTeBCR__Btl-1" target="SWBdWs7fgn10MAbYWgev-28">
          <mxGeometry relative="1" as="geometry">
            <mxPoint x="630" y="-220" as="sourcePoint" />
            <mxPoint x="612.5" y="-195" as="targetPoint" />
            <Array as="points">
              <mxPoint x="950" y="-830" />
            </Array>
          </mxGeometry>
        </mxCell>
        <mxCell id="IxCLyu_dnbTeBCR__Btl-1" value="BibliotecarioService" style="swimlane;fontStyle=1;align=center;verticalAlign=top;childLayout=stackLayout;horizontal=1;startSize=26;horizontalStack=0;resizeParent=1;resizeParentMax=0;resizeLast=0;collapsible=1;marginBottom=0;whiteSpace=wrap;html=1;" vertex="1" parent="1">
          <mxGeometry x="740" y="-750" width="250" height="80" as="geometry" />
        </mxCell>
        <mxCell id="IxCLyu_dnbTeBCR__Btl-3" value="" style="line;strokeWidth=1;fillColor=none;align=left;verticalAlign=middle;spacingTop=-1;spacingLeft=3;spacingRight=3;rotatable=0;labelPosition=right;points=[];portConstraint=eastwest;strokeColor=inherit;" vertex="1" parent="IxCLyu_dnbTeBCR__Btl-1">
          <mxGeometry y="26" width="250" height="8" as="geometry" />
        </mxCell>
        <mxCell id="IxCLyu_dnbTeBCR__Btl-4" value="+ cadastrarBibliotecario(bibliotecario): String&lt;div&gt;+ login(email, senha): Bibliotecario&lt;/div&gt;" style="text;strokeColor=none;fillColor=none;align=left;verticalAlign=top;spacingLeft=4;spacingRight=4;overflow=hidden;rotatable=0;points=[[0,0.5],[1,0.5]];portConstraint=eastwest;whiteSpace=wrap;html=1;" vertex="1" parent="IxCLyu_dnbTeBCR__Btl-1">
          <mxGeometry y="34" width="250" height="46" as="geometry" />
        </mxCell>
        <mxCell id="IxCLyu_dnbTeBCR__Btl-22" style="edgeStyle=orthogonalEdgeStyle;rounded=0;orthogonalLoop=1;jettySize=auto;html=1;endArrow=none;startFill=0;" edge="1" parent="1" source="IxCLyu_dnbTeBCR__Btl-5" target="SWBdWs7fgn10MAbYWgev-13">
          <mxGeometry relative="1" as="geometry">
            <Array as="points">
              <mxPoint x="980" y="180" />
            </Array>
          </mxGeometry>
        </mxCell>
        <mxCell id="IxCLyu_dnbTeBCR__Btl-45" style="edgeStyle=orthogonalEdgeStyle;rounded=0;orthogonalLoop=1;jettySize=auto;html=1;endArrow=none;startFill=0;" edge="1" parent="1" source="IxCLyu_dnbTeBCR__Btl-5" target="SWBdWs7fgn10MAbYWgev-40">
          <mxGeometry relative="1" as="geometry">
            <Array as="points">
              <mxPoint x="990" y="182" />
            </Array>
          </mxGeometry>
        </mxCell>
        <mxCell id="IxCLyu_dnbTeBCR__Btl-5" value="EmprestimoService" style="swimlane;fontStyle=1;align=center;verticalAlign=top;childLayout=stackLayout;horizontal=1;startSize=26;horizontalStack=0;resizeParent=1;resizeParentMax=0;resizeLast=0;collapsible=1;marginBottom=0;whiteSpace=wrap;html=1;" vertex="1" parent="1">
          <mxGeometry x="830" y="-560" width="240" height="110" as="geometry" />
        </mxCell>
        <mxCell id="IxCLyu_dnbTeBCR__Btl-7" value="" style="line;strokeWidth=1;fillColor=none;align=left;verticalAlign=middle;spacingTop=-1;spacingLeft=3;spacingRight=3;rotatable=0;labelPosition=right;points=[];portConstraint=eastwest;strokeColor=inherit;" vertex="1" parent="IxCLyu_dnbTeBCR__Btl-5">
          <mxGeometry y="26" width="240" height="8" as="geometry" />
        </mxCell>
        <mxCell id="IxCLyu_dnbTeBCR__Btl-8" value="+ salvarEmprestimo(emprestimo): String&lt;div&gt;+ listarTodos(): List&amp;lt;Emprestimo&amp;gt;&lt;/div&gt;&lt;div&gt;+ atualizarEmprestimo(emprestimo): String&lt;/div&gt;&lt;div&gt;+ deletarEmprestimo(id): Long&lt;/div&gt;" style="text;strokeColor=none;fillColor=none;align=left;verticalAlign=top;spacingLeft=4;spacingRight=4;overflow=hidden;rotatable=0;points=[[0,0.5],[1,0.5]];portConstraint=eastwest;whiteSpace=wrap;html=1;" vertex="1" parent="IxCLyu_dnbTeBCR__Btl-5">
          <mxGeometry y="34" width="240" height="76" as="geometry" />
        </mxCell>
        <mxCell id="IxCLyu_dnbTeBCR__Btl-9" value="LivroService" style="swimlane;fontStyle=1;align=center;verticalAlign=top;childLayout=stackLayout;horizontal=1;startSize=26;horizontalStack=0;resizeParent=1;resizeParentMax=0;resizeLast=0;collapsible=1;marginBottom=0;whiteSpace=wrap;html=1;" vertex="1" parent="1">
          <mxGeometry x="560" y="-560" width="210" height="150" as="geometry" />
        </mxCell>
        <mxCell id="IxCLyu_dnbTeBCR__Btl-11" value="" style="line;strokeWidth=1;fillColor=none;align=left;verticalAlign=middle;spacingTop=-1;spacingLeft=3;spacingRight=3;rotatable=0;labelPosition=right;points=[];portConstraint=eastwest;strokeColor=inherit;" vertex="1" parent="IxCLyu_dnbTeBCR__Btl-9">
          <mxGeometry y="26" width="210" height="8" as="geometry" />
        </mxCell>
        <mxCell id="IxCLyu_dnbTeBCR__Btl-12" value="+ cadastrarLivro(livro): String&lt;div&gt;+ listarTodosLivros(): List&amp;lt;Livro&amp;gt;&lt;/div&gt;&lt;div&gt;+ buscarLivroPorId(id): Livro&lt;/div&gt;&lt;div&gt;+ buscarLivroPorNome(nome): String&lt;/div&gt;&lt;div&gt;+ atualizarLivro(livro): String&lt;/div&gt;&lt;div&gt;+ alterarStatusLivro(id, status): String&lt;/div&gt;&lt;div&gt;+ deletarLivro(id): String&lt;/div&gt;" style="text;strokeColor=none;fillColor=none;align=left;verticalAlign=top;spacingLeft=4;spacingRight=4;overflow=hidden;rotatable=0;points=[[0,0.5],[1,0.5]];portConstraint=eastwest;whiteSpace=wrap;html=1;" vertex="1" parent="IxCLyu_dnbTeBCR__Btl-9">
          <mxGeometry y="34" width="210" height="116" as="geometry" />
        </mxCell>
        <mxCell id="IxCLyu_dnbTeBCR__Btl-13" value="UsuarioService" style="swimlane;fontStyle=1;align=center;verticalAlign=top;childLayout=stackLayout;horizontal=1;startSize=26;horizontalStack=0;resizeParent=1;resizeParentMax=0;resizeLast=0;collapsible=1;marginBottom=0;whiteSpace=wrap;html=1;" vertex="1" parent="1">
          <mxGeometry x="1110" y="-560" width="230" height="150" as="geometry" />
        </mxCell>
        <mxCell id="IxCLyu_dnbTeBCR__Btl-15" value="" style="line;strokeWidth=1;fillColor=none;align=left;verticalAlign=middle;spacingTop=-1;spacingLeft=3;spacingRight=3;rotatable=0;labelPosition=right;points=[];portConstraint=eastwest;strokeColor=inherit;" vertex="1" parent="IxCLyu_dnbTeBCR__Btl-13">
          <mxGeometry y="26" width="230" height="8" as="geometry" />
        </mxCell>
        <mxCell id="IxCLyu_dnbTeBCR__Btl-16" value="+ cadastrarUsuario(usuario): String&lt;div&gt;+ buscarPorMatricula(matricula): Usuario&lt;/div&gt;&lt;div&gt;+ buscarPorNome(nome): List&amp;lt;Usuario&amp;gt;&lt;/div&gt;&lt;div&gt;+ listarTodos(): List&amp;lt;Usuario&amp;gt;&lt;/div&gt;&lt;div&gt;+ listarAlunos(): List&amp;lt;Usuario&amp;gt;&lt;/div&gt;&lt;div&gt;+ listarProfessores(): List&amp;lt;Usuario&amp;gt;&lt;/div&gt;&lt;div&gt;+ deletarUsuario(id): String&lt;/div&gt;" style="text;strokeColor=none;fillColor=none;align=left;verticalAlign=top;spacingLeft=4;spacingRight=4;overflow=hidden;rotatable=0;points=[[0,0.5],[1,0.5]];portConstraint=eastwest;whiteSpace=wrap;html=1;" vertex="1" parent="IxCLyu_dnbTeBCR__Btl-13">
          <mxGeometry y="34" width="230" height="116" as="geometry" />
        </mxCell>
        <mxCell id="IxCLyu_dnbTeBCR__Btl-21" style="edgeStyle=orthogonalEdgeStyle;rounded=0;orthogonalLoop=1;jettySize=auto;html=1;endArrow=none;startFill=0;" edge="1" parent="1" source="IxCLyu_dnbTeBCR__Btl-12" target="SWBdWs7fgn10MAbYWgev-17">
          <mxGeometry relative="1" as="geometry">
            <Array as="points">
              <mxPoint x="590" y="-200" />
              <mxPoint x="590" y="-200" />
            </Array>
          </mxGeometry>
        </mxCell>
        <mxCell id="IxCLyu_dnbTeBCR__Btl-23" style="edgeStyle=orthogonalEdgeStyle;rounded=0;orthogonalLoop=1;jettySize=auto;html=1;endArrow=none;startFill=0;" edge="1" parent="1" source="IxCLyu_dnbTeBCR__Btl-16" target="SWBdWs7fgn10MAbYWgev-1">
          <mxGeometry relative="1" as="geometry">
            <Array as="points">
              <mxPoint x="1310" y="-360" />
            </Array>
          </mxGeometry>
        </mxCell>
        <mxCell id="IxCLyu_dnbTeBCR__Btl-32" style="edgeStyle=orthogonalEdgeStyle;rounded=0;orthogonalLoop=1;jettySize=auto;html=1;endArrow=none;startFill=0;" edge="1" parent="1" source="IxCLyu_dnbTeBCR__Btl-16" target="SWBdWs7fgn10MAbYWgev-40">
          <mxGeometry relative="1" as="geometry">
            <Array as="points">
              <mxPoint x="1010" y="-430" />
              <mxPoint x="1010" y="130" />
            </Array>
          </mxGeometry>
        </mxCell>
        <mxCell id="IxCLyu_dnbTeBCR__Btl-33" style="edgeStyle=orthogonalEdgeStyle;rounded=0;orthogonalLoop=1;jettySize=auto;html=1;endArrow=none;startFill=0;" edge="1" parent="1" source="IxCLyu_dnbTeBCR__Btl-8" target="SWBdWs7fgn10MAbYWgev-34">
          <mxGeometry relative="1" as="geometry">
            <Array as="points">
              <mxPoint x="950" y="-130" />
              <mxPoint x="950" y="-130" />
            </Array>
          </mxGeometry>
        </mxCell>
        <mxCell id="IxCLyu_dnbTeBCR__Btl-36" value="1 , 1" style="text;html=1;align=center;verticalAlign=middle;resizable=0;points=[];autosize=1;strokeColor=none;fillColor=none;" vertex="1" parent="1">
          <mxGeometry x="1201" y="-7" width="50" height="30" as="geometry" />
        </mxCell>
        <mxCell id="IxCLyu_dnbTeBCR__Btl-37" value="0 , *" style="text;html=1;align=center;verticalAlign=middle;resizable=0;points=[];autosize=1;strokeColor=none;fillColor=none;" vertex="1" parent="1">
          <mxGeometry x="375" y="-782" width="40" height="30" as="geometry" />
        </mxCell>
        <mxCell id="IxCLyu_dnbTeBCR__Btl-38" value="0 , *" style="text;html=1;align=center;verticalAlign=middle;resizable=0;points=[];autosize=1;strokeColor=none;fillColor=none;" vertex="1" parent="1">
          <mxGeometry x="481" y="-583" width="40" height="30" as="geometry" />
        </mxCell>
        <mxCell id="IxCLyu_dnbTeBCR__Btl-39" value="1, 1" style="text;html=1;align=center;verticalAlign=middle;resizable=0;points=[];autosize=1;strokeColor=none;fillColor=none;" vertex="1" parent="1">
          <mxGeometry x="513" y="-372" width="40" height="30" as="geometry" />
        </mxCell>
        <mxCell id="IxCLyu_dnbTeBCR__Btl-40" value="0 , 1" style="text;html=1;align=center;verticalAlign=middle;resizable=0;points=[];autosize=1;strokeColor=none;fillColor=none;" vertex="1" parent="1">
          <mxGeometry x="288" y="-643" width="50" height="30" as="geometry" />
        </mxCell>
        <mxCell id="IxCLyu_dnbTeBCR__Btl-41" value="1 , *" style="text;html=1;align=center;verticalAlign=middle;resizable=0;points=[];autosize=1;strokeColor=none;fillColor=none;" vertex="1" parent="1">
          <mxGeometry x="285" y="229" width="40" height="30" as="geometry" />
        </mxCell>
        <mxCell id="IxCLyu_dnbTeBCR__Btl-42" style="edgeStyle=orthogonalEdgeStyle;rounded=0;orthogonalLoop=1;jettySize=auto;html=1;endArrow=none;startFill=0;" edge="1" parent="1" source="SWBdWs7fgn10MAbYWgev-16" target="SWBdWs7fgn10MAbYWgev-1">
          <mxGeometry relative="1" as="geometry">
            <Array as="points">
              <mxPoint x="1290" y="290" />
              <mxPoint x="1290" y="60" />
              <mxPoint x="1180" y="60" />
            </Array>
          </mxGeometry>
        </mxCell>
        <mxCell id="IxCLyu_dnbTeBCR__Btl-43" value="1 , *" style="text;html=1;align=center;verticalAlign=middle;resizable=0;points=[];autosize=1;strokeColor=none;fillColor=none;" vertex="1" parent="1">
          <mxGeometry x="603" y="267" width="40" height="30" as="geometry" />
        </mxCell>
        <mxCell id="IxCLyu_dnbTeBCR__Btl-44" value="1 , *" style="text;html=1;align=center;verticalAlign=middle;resizable=0;points=[];autosize=1;strokeColor=none;fillColor=none;" vertex="1" parent="1">
          <mxGeometry x="1146" y="16" width="40" height="30" as="geometry" />
        </mxCell>
        <mxCell id="IxCLyu_dnbTeBCR__Btl-46" style="edgeStyle=orthogonalEdgeStyle;rounded=0;orthogonalLoop=1;jettySize=auto;html=1;endArrow=none;startFill=0;" edge="1" parent="1" source="IxCLyu_dnbTeBCR__Btl-8" target="SWBdWs7fgn10MAbYWgev-37">
          <mxGeometry relative="1" as="geometry">
            <Array as="points">
              <mxPoint x="920" y="-400" />
              <mxPoint x="920" y="-400" />
            </Array>
          </mxGeometry>
        </mxCell>
      </root>
    </mxGraphModel>
  </diagram>
</mxfile>
